{
  "accessors": [
    {
      "bufferView": 2,
      "componentType": 5126,
      "count": 7211,
      "max": [
        13.350000381469727,
        7.3969736099243164,
        9.0278177261352539
      ],
      "min": [
        -13.350000381469727,
        -0.0019572824239730835,
        -8.3500003814697266
      ],
      "type": "VEC3"
    },
    {
      "bufferView": 2,
      "byteOffset": 86532,
      "componentType": 5126,
      "count": 7211,
      "max": [
        1,
        1,
        1
      ],
      "min": [
        -1,
        -1,
        -1
      ],
      "type": "VEC3"
    },
    {
      "bufferView": 1,
      "componentType": 5126,
      "count": 7211,
      "max": [
        0.98869949579238892,
        1.9936575889587402
      ],
      "min": [
        0.0034396108239889145,
        0.0067239655181765556
      ],
      "type": "VEC2"
    },
    {
      "bufferView": 1,
      "byteOffset": 57688,
      "componentType": 5126,
      "count": 7211,
      "max": [
        0.98869949579238892,
        1.9936575889587402
      ],
      "min": [
        0.0034396108239889145,
        0.0067239655181765556
      ],
      "type": "VEC2"
    },
    {
      "bufferView": 0,
      "componentType": 5125,
      "count": 18588,
      "max": [
        7210
      ],
      "min": [
        0
      ],
      "type": "SCALAR"
    }
  ],
  "asset": {
    "extras": {
      "author": "Jeff (https://sketchfab.com/kiri-rxrai)",
      "license": "CC-BY-4.0 (http://creativecommons.org/licenses/by/4.0/)",
      "source": "https://sketchfab.com/3d-models/pokemon-center-scene-c497ebb33ca343a6a4cc4ab685b9235c",
      "title": "Pokemon Center Scene"
    },
    "generator": "Sketchfab-9.90.0",
    "version": "2.0"
  },
  "bufferViews": [
    {
      "buffer": 0,
      "byteLength": 74352,
      "byteOffset": 0,
      "name": "floatBufferViews",
      "target": 34963
    },
    {
      "buffer": 0,
      "byteLength": 115376,
      "byteOffset": 74352,
      "byteStride": 8,
      "name": "floatBufferViews",
      "target": 34962
    },
    {
      "buffer": 0,
      "byteLength": 173064,
      "byteOffset": 189728,
      "byteStride": 12,
      "name": "floatBufferViews",
      "target": 34962
    }
  ],
  "buffers": [
    {
      "byteLength": 362792,
      "uri": "scene.bin"
    }
  ],
  "extensionsUsed": [
    "KHR_materials_unlit"
  ],
  "images": [
    {
      "uri": "textures/PC_Material_baseColor.png"
    },
    {
      "uri": "textures/PC_Material_emissive.png"
    }
  ],
  "materials": [
    {
      "doubleSided": true,
      "emissiveFactor": [
        0.29999999999999999,
        0.29999999999999999,
        0.29999999999999999
      ],
      "emissiveTexture": {
        "index": 1,
        "texCoord": 0
      },
      "extensions": {
        "KHR_materials_unlit": {}
      },
      "name": "PC_Material",
      "pbrMetallicRoughness": {
        "baseColorFactor": [
          1,
          1,
          1,
          1
        ],
        "baseColorTexture": {
          "index": 0,
          "texCoord": 0
        },
        "metallicFactor": 0,
        "roughnessFactor": 1
      }
    }
  ],
  "meshes": [
    {
      "name": "PC_Scene_PC_Material_0",
      "primitives": [
        {
          "attributes": {
            "NORMAL": 1,
            "POSITION": 0,
            "TEXCOORD_0": 2,
            "TEXCOORD_1": 3
          },
          "indices": 4,
          "material": 0,
          "mode": 4
        }
      ]
    }
  ],
  "nodes": [
    {
      "children": [
        1
      ],
      "name": "RootNode (gltf orientation matrix)",
      "rotation": [
        -0.70710678118654746,
        -0,
        -0,
        0.70710678118654757
      ]
    },
    {
      "children": [
        2
      ],
      "matrix": [
        0.74846112728118896,
        0,
        0,
        0,
        0,
        0.74846112728118896,
        0,
        0,
        0,
        0,
        0.74846112728118896,
        0,
        0,
        0,
        0,
        1
      ],
      "name": "RootNode (model correction matrix)"
    },
    {
      "children": [
        3
      ],
      "matrix": [
        1,
        0,
        0,
        0,
        0,
        0,
        1,
        0,
        0,
        -1,
        0,
        0,
        0,
        0,
        0,
        1
      ],
      "name": "96b87eabf4434b23a9c2807fedefc570.fbx"
    },
    {
      "children": [
        4
      ],
      "name": "RootNode"
    },
    {
      "children": [
        5
      ],
      "name": "PC_Scene"
    },
    {
      "mesh": 0,
      "name": "PC_Scene_PC_Material_0"
    }
  ],
  "samplers": [
    {
      "magFilter": 9729,
      "minFilter": 9987,
      "wrapS": 10497,
      "wrapT": 10497
    }
  ],
  "scene": 0,
  "scenes": [
    {
      "name": "OSG_Scene",
      "nodes": [
        0
      ]
    }
  ],
  "textures": [
    {
      "sampler": 0,
      "source": 0
    },
    {
      "sampler": 0,
      "source": 1
    }
  ]
}

