{
  "accessors": [
    {
      "bufferView": 2,
      "componentType": 5126,
      "count": 313,
      "max": [
        0.18363399803638458,
        0.1908169984817505,
        2.053788900375366
      ],
      "min": [
        -0.17368200421333313,
        -0.31356000900268555,
        1.8010129928588867
      ],
      "type": "VEC3"
    },
    {
      "bufferView": 2,
      "byteOffset": 3756,
      "componentType": 5126,
      "count": 313,
      "max": [
        0.9997923374176025,
        1.0,
        0.9999927878379822
      ],
      "min": [
        -0.999221920967102,
        -0.9954401850700378,
        -0.9999957084655762
      ],
      "type": "VEC3"
    },
    {
      "bufferView": 1,
      "componentType": 5126,
      "count": 313,
      "max": [
        0.5382300019264221,
        0.9849640130996704
      ],
      "min": [
        0.34053701162338257,
        0.5463569760322571
      ],
      "type": "VEC2"
    },
    {
      "bufferView": 0,
      "componentType": 5125,
      "count": 1266,
      "type": "SCALAR"
    },
    {
      "bufferView": 2,
      "byteOffset": 7512,
      "componentType": 5126,
      "count": 980,
      "max": [
        0.19168800115585327,
        0.07632800191640854,
        1.9054419994354248
      ],
      "min": [
        -0.17962099611759186,
        -0.2142370045185089,
        1.5082459449768066
      ],
      "type": "VEC3"
    },
    {
      "bufferView": 2,
      "byteOffset": 19272,
      "componentType": 5126,
      "count": 980,
      "max": [
        0.9988438487052917,
        0.9968189001083374,
        0.9983492493629456
      ],
      "min": [
        -0.9974285364151001,
        -0.9998549222946167,
        -0.9998948574066162
      ],
      "type": "VEC3"
    },
    {
      "bufferView": 1,
      "byteOffset": 2504,
      "componentType": 5126,
      "count": 980,
      "max": [
        0.9932090044021606,
        0.3596470057964325
      ],
      "min": [
        -0.2506040036678314,
        0.007867000065743923
      ],
      "type": "VEC2"
    },
    {
      "bufferView": 0,
      "byteOffset": 5064,
      "componentType": 5125,
      "count": 4272,
      "type": "SCALAR"
    },
    {
      "bufferView": 2,
      "byteOffset": 31032,
      "componentType": 5126,
      "count": 2392,
      "max": [
        1.0416909456253052,
        0.2669549882411957,
        2.0354020595550537
      ],
      "min": [
        -1.0137219429016113,
        -0.21599699556827545,
        1.3931649923324585
      ],
      "type": "VEC3"
    },
    {
      "bufferView": 2,
      "byteOffset": 59736,
      "componentType": 5126,
      "count": 2392,
      "max": [
        0.9995123744010925,
        0.9988806247711182,
        0.9998114109039307
      ],
      "min": [
        -0.9984800815582275,
        -0.9993487596511841,
        -0.9996247887611389
      ],
      "type": "VEC3"
    },
    {
      "bufferView": 1,
      "byteOffset": 10344,
      "componentType": 5126,
      "count": 2392,
      "max": [
        0.774662971496582,
        0.6012930274009705
      ],
      "min": [
        0.007977999746799469,
        0.023444000631570816
      ],
      "type": "VEC2"
    },
    {
      "bufferView": 0,
      "byteOffset": 22152,
      "componentType": 5125,
      "count": 7728,
      "type": "SCALAR"
    },
    {
      "bufferView": 2,
      "byteOffset": 88440,
      "componentType": 5126,
      "count": 2484,
      "max": [
        0.4170750081539154,
        0.19749900698661804,
        1.6573820114135742
      ],
      "min": [
        -0.41798800230026245,
        -0.2581700086593628,
        -0.002865999937057495
      ],
      "type": "VEC3"
    },
    {
      "bufferView": 2,
      "byteOffset": 118248,
      "componentType": 5126,
      "count": 2484,
      "max": [
        1.0,
        0.9999192357063293,
        0.999981701374054
      ],
      "min": [
        -0.9995219111442566,
        -0.9996333122253418,
        -0.9999610185623169
      ],
      "type": "VEC3"
    },
    {
      "bufferView": 1,
      "byteOffset": 29480,
      "componentType": 5126,
      "count": 2484,
      "max": [
        1.8505860567092896,
        0.5874329805374146
      ],
      "min": [
        0.005127000156790018,
        -0.9936519861221313
      ],
      "type": "VEC2"
    },
    {
      "bufferView": 0,
      "byteOffset": 53064,
      "componentType": 5125,
      "count": 9909,
      "type": "SCALAR"
    },
    {
      "bufferView": 2,
      "byteOffset": 148056,
      "componentType": 5126,
      "count": 878,
      "max": [
        0.22644099593162537,
        0.34515801072120667,
        1.6015989780426025
      ],
      "min": [
        -0.2265239953994751,
        -0.10987500101327896,
        1.0263479948043823
      ],
      "type": "VEC3"
    },
    {
      "bufferView": 2,
      "byteOffset": 158592,
      "componentType": 5126,
      "count": 878,
      "max": [
        0.9999986886978149,
        0.9994641542434692,
        0.9976495504379272
      ],
      "min": [
        -0.9999971389770508,
        -0.9978102445602417,
        -0.9996989965438843
      ],
      "type": "VEC3"
    },
    {
      "bufferView": 1,
      "byteOffset": 49352,
      "componentType": 5126,
      "count": 878,
      "max": [
        0.9869049787521362,
        0.8785769939422607
      ],
      "min": [
        0.009072000160813332,
        -0.9863089919090271
      ],
      "type": "VEC2"
    },
    {
      "bufferView": 0,
      "byteOffset": 92700,
      "componentType": 5125,
      "count": 2664,
      "type": "SCALAR"
    }
  ],
  "asset": {
    "extras": {
      "author": "asujata175 (https://sketchfab.com/asujata175)",
      "license": "CC-BY-4.0 (http://creativecommons.org/licenses/by/4.0/)",
      "source": "https://sketchfab.com/3d-models/ash-ketchum-pokemon-trainer-5034ccce711442fd9bbd3797d2403df3",
      "title": "Ash Ketchum pokemon trainer"
    },
    "generator": "Sketchfab-11.53.2",
    "version": "2.0"
  },
  "bufferViews": [
    {
      "buffer": 0,
      "byteLength": 103356,
      "name": "floatBufferViews",
      "target": 34963
    },
    {
      "buffer": 0,
      "byteLength": 56376,
      "byteOffset": 103356,
      "byteStride": 8,
      "name": "floatBufferViews",
      "target": 34962
    },
    {
      "buffer": 0,
      "byteLength": 169128,
      "byteOffset": 159732,
      "byteStride": 12,
      "name": "floatBufferViews",
      "target": 34962
    }
  ],
  "buffers": [
    {
      "byteLength": 328860,
      "uri": "scene.bin"
    }
  ],
  "images": [
    {
      "uri": "textures/Ash_AG_arms_hat_hair.png_baseColor.png"
    },
    {
      "uri": "textures/Ash_Ketchum_baseColor.png"
    },
    {
      "uri": "textures/Ash_Ketchum_0_baseColor.png"
    },
    {
      "uri": "textures/def_ptrainer_001_col_2.png_baseColor.png"
    },
    {
      "uri": "textures/tr0022_00_AG_obj_col.png_baseColor.png"
    }
  ],
  "materials": [
    {
      "doubleSided": true,
      "name": "Ash_AG_arms_hat_hair.png",
      "pbrMetallicRoughness": {
        "baseColorTexture": {
          "index": 0
        },
        "metallicFactor": 0.0,
        "roughnessFactor": 0.8434915419926713
      }
    },
    {
      "doubleSided": true,
      "name": "Ash_Ketchum",
      "pbrMetallicRoughness": {
        "baseColorTexture": {
          "index": 1
        },
        "metallicFactor": 0.0,
        "roughnessFactor": 0.8434915419926713
      }
    },
    {
      "doubleSided": true,
      "name": "Ash_Ketchum_0",
      "pbrMetallicRoughness": {
        "baseColorTexture": {
          "index": 2
        },
        "metallicFactor": 0.0,
        "roughnessFactor": 0.8434915419926713
      }
    },
    {
      "doubleSided": true,
      "name": "def_ptrainer_001_col_2.png",
      "pbrMetallicRoughness": {
        "baseColorTexture": {
          "index": 3
        },
        "metallicFactor": 0.0,
        "roughnessFactor": 0.8434915419926713
      }
    },
    {
      "doubleSided": true,
      "name": "tr0022_00_AG_obj_col.png",
      "pbrMetallicRoughness": {
        "baseColorTexture": {
          "index": 4
        },
        "metallicFactor": 0.0,
        "roughnessFactor": 0.8434915419926713
      }
    }
  ],
  "meshes": [
    {
      "name": "Object_0",
      "primitives": [
        {
          "attributes": {
            "NORMAL": 1,
            "POSITION": 0,
            "TEXCOORD_0": 2
          },
          "indices": 3,
          "material": 0,
          "mode": 4
        }
      ]
    },
    {
      "name": "Object_1",
      "primitives": [
        {
          "attributes": {
            "NORMAL": 5,
            "POSITION": 4,
            "TEXCOORD_0": 6
          },
          "indices": 7,
          "material": 1,
          "mode": 4
        }
      ]
    },
    {
      "name": "Object_2",
      "primitives": [
        {
          "attributes": {
            "NORMAL": 9,
            "POSITION": 8,
            "TEXCOORD_0": 10
          },
          "indices": 11,
          "material": 2,
          "mode": 4
        }
      ]
    },
    {
      "name": "Object_3",
      "primitives": [
        {
          "attributes": {
            "NORMAL": 13,
            "POSITION": 12,
            "TEXCOORD_0": 14
          },
          "indices": 15,
          "material": 3,
          "mode": 4
        }
      ]
    },
    {
      "name": "Object_4",
      "primitives": [
        {
          "attributes": {
            "NORMAL": 17,
            "POSITION": 16,
            "TEXCOORD_0": 18
          },
          "indices": 19,
          "material": 4,
          "mode": 4
        }
      ]
    }
  ],
  "nodes": [
    {
      "children": [
        1
      ],
      "matrix": [
        1.0,
        0.0,
        0.0,
        0.0,
        0.0,
        2.220446049250313e-16,
        -1.0,
        0.0,
        0.0,
        1.0,
        2.220446049250313e-16,
        0.0,
        0.0,
        0.0,
        0.0,
        1.0
      ],
      "name": "Sketchfab_model"
    },
    {
      "children": [
        2,
        3,
        4,
        5,
        6
      ],
      "name": "Ash_Ketchum_AG.obj.cleaner.materialmerger.gles"
    },
    {
      "mesh": 0,
      "name": "Object_2"
    },
    {
      "mesh": 1,
      "name": "Object_3"
    },
    {
      "mesh": 2,
      "name": "Object_4"
    },
    {
      "mesh": 3,
      "name": "Object_5"
    },
    {
      "mesh": 4,
      "name": "Object_6"
    }
  ],
  "samplers": [
    {
      "magFilter": 9729,
      "minFilter": 9987,
      "wrapS": 10497,
      "wrapT": 10497
    }
  ],
  "scene": 0,
  "scenes": [
    {
      "name": "Sketchfab_Scene",
      "nodes": [
        0
      ]
    }
  ],
  "textures": [
    {
      "sampler": 0,
      "source": 0
    },
    {
      "sampler": 0,
      "source": 1
    },
    {
      "sampler": 0,
      "source": 2
    },
    {
      "sampler": 0,
      "source": 3
    },
    {
      "sampler": 0,
      "source": 4
    }
  ]
}
